<svg xmlns="http://www.w3.org/2000/svg" viewBox="0 0 244.6 324.4"><path d="M120.8 80c-1 12.8-9.9 19.9-22.7 20.2-8 .2-16 .2-23.9 0-2.2 0-3 .2-3.7 2.5a214.1 214.1 0 0 0-9.4 59.7 191.8 191.8 0 0 0 9.6 59c1.3 4.2 4.4 2.8 6.9 2.9 8 .1 16-.5 23.8 0 12.9.8 20.6 12.3 20.3 28.2-.4 16.5-.4 33-.1 49.5.2 12.3-10.4 21.7-23.8 22.3-38.2 1.7-60-20-75.2-51.4A237.6 237.6 0 0 1 .4 177.4c-1-27.1-.3-54.1 4.5-80.7 6-33.9 18.4-64.7 48.5-84.9A70.6 70.6 0 0 1 100.7.4c13.4 1.3 21.2 11.5 21 26.6zM85 232.3v.2H69a4.6 4.6 0 0 1-4.8-3.6A223.8 223.8 0 0 1 53 170.1a225 225 0 0 1 11-74.7c.7-2.6 2-3.4 4.6-3.4l30.1-.1c8.4-.2 14.8-6.6 14.7-14.4l.1-49c.2-11.8-4.8-19.4-13.9-20A65.6 65.6 0 0 0 48 26.9c-24.8 23.3-33.5 53.4-37.2 85.6a388.1 388.1 0 0 0-1.2 78 208.9 208.9 0 0 0 27.2 91c14 23.8 34 36.4 62.3 34.2 8.1-.6 13.8-6.3 13.8-14.5q0-23.7.4-47.4c.2-13.4-3.4-20.3-12-21.3-5.4-.7-11-.2-16.4-.2zm113-78h39.4c4 0 7.2 1.2 7.2 5.6s-3.3 5.5-7.3 5.5h-79.5a27.3 27.3 0 0 0-3.7.5l2.5 3c11.6 11.6 23.2 23.3 35 34.9 2.5 2.4 3 3.8.1 6.4-2.4 2.2-3.6 3.2-6.5.3a3305.9 3305.9 0 0 0-47-47c-2.7-2.8-2.8-4.5 0-7.2q23.9-23.5 47.4-47.4c2.7-2.8 4-1.9 6 .4 2 2 3.6 3.2.6 6.1-12.2 11.8-24 24-36 36a25.3 25.3 0 0 0-2 2.6 24.6 24.6 0 0 0 3.2.4h40.5z"/></svg>