<?xml version="1.0" encoding="UTF-8"?>
<!DOCTYPE svg PUBLIC "-//W3C//DTD SVG 1.1//EN" "http://www.w3.org/Graphics/SVG/1.1/DTD/svg11.dtd">
<svg xmlns="http://www.w3.org/2000/svg">
<symbol id="facebook" viewBox="0 0 448 512">
    <path d="M448 56.7v398.5c0 13.7-11.1 24.7-24.7 24.7H309.1V306.5h58.2l8.7-67.6h-67v-43.2c0-19.6 5.4-32.9 33.5-32.9h35.8v-60.5c-6.2-.8-27.4-2.7-52.2-2.7-51.6 0-87 31.5-87 89.4v49.9h-58.4v67.6h58.4V480H24.7C11.1 480 0 468.9 0 455.3V56.7C0 43.1 11.1 32 24.7 32h398.5c13.7 0 24.8 11.1 24.8 24.7z"/>
</symbol>
<symbol id="instagram" viewBox="0 0 448 512">
    <path d="M224.1 141c-63.6 0-114.9 51.3-114.9 114.9s51.3 114.9 114.9 114.9S339 319.5 339 255.9 287.7 141 224.1 141zm0 189.6c-41.1 0-74.7-33.5-74.7-74.7s33.5-74.7 74.7-74.7 74.7 33.5 74.7 74.7-33.6 74.7-74.7 74.7zm146.4-194.3c0 14.9-12 26.8-26.8 26.8-14.9 0-26.8-12-26.8-26.8s12-26.8 26.8-26.8 26.8 12 26.8 26.8zm76.1 27.2c-1.7-35.9-9.9-67.7-36.2-93.9-26.2-26.2-58-34.4-93.9-36.2-37-2.1-147.9-2.1-184.9 0-35.8 1.7-67.6 9.9-93.9 36.1s-34.4 58-36.2 93.9c-2.1 37-2.1 147.9 0 184.9 1.7 35.9 9.9 67.7 36.2 93.9s58 34.4 93.9 36.2c37 2.1 147.9 2.1 184.9 0 35.9-1.7 67.7-9.9 93.9-36.2 26.2-26.2 34.4-58 36.2-93.9 2.1-37 2.1-147.8 0-184.8zM398.8 388c-7.8 19.6-22.9 34.7-42.6 42.6-29.5 11.7-99.5 9-132.1 9s-102.7 2.6-132.1-9c-19.6-7.8-34.7-22.9-42.6-42.6-11.7-29.5-9-99.5-9-132.1s-2.6-102.7 9-132.1c7.8-19.6 22.9-34.7 42.6-42.6 29.5-11.7 99.5-9 132.1-9s102.7-2.6 132.1 9c19.6 7.8 34.7 22.9 42.6 42.6 11.7 29.5 9 99.5 9 132.1s2.7 102.7-9 132.1z"/>
</symbol>
<symbol id="list-ul" viewBox="0 0 512 512">
    <path d="M96 96c0 26.51-21.49 48-48 48S0 122.51 0 96s21.49-48 48-48 48 21.49 48 48zM48 208c-26.51 0-48 21.49-48 48s21.49 48 48 48 48-21.49 48-48-21.49-48-48-48zm0 160c-26.51 0-48 21.49-48 48s21.49 48 48 48 48-21.49 48-48-21.49-48-48-48zm96-236h352c8.837 0 16-7.163 16-16V76c0-8.837-7.163-16-16-16H144c-8.837 0-16 7.163-16 16v40c0 8.837 7.163 16 16 16zm0 160h352c8.837 0 16-7.163 16-16v-40c0-8.837-7.163-16-16-16H144c-8.837 0-16 7.163-16 16v40c0 8.837 7.163 16 16 16zm0 160h352c8.837 0 16-7.163 16-16v-40c0-8.837-7.163-16-16-16H144c-8.837 0-16 7.163-16 16v40c0 8.837 7.163 16 16 16z"/>
</symbol>
<symbol id="odnoklassniki" viewBox="0 0 320 512">
    <path d="M275.1 334c-27.4 17.4-65.1 24.3-90 26.9l20.9 20.6 76.3 76.3c27.9 28.6-17.5 73.3-45.7 45.7-19.1-19.4-47.1-47.4-76.3-76.6L84 503.4c-28.2 27.5-73.6-17.6-45.4-45.7 19.4-19.4 47.1-47.4 76.3-76.3l20.6-20.6c-24.6-2.6-62.9-9.1-90.6-26.9-32.6-21-46.9-33.3-34.3-59 7.4-14.6 27.7-26.9 54.6-5.7 0 0 36.3 28.9 94.9 28.9s94.9-28.9 94.9-28.9c26.9-21.1 47.1-8.9 54.6 5.7 12.4 25.7-1.9 38-34.5 59.1zM30.3 129.7C30.3 58 88.6 0 160 0s129.7 58 129.7 129.7c0 71.4-58.3 129.4-129.7 129.4s-129.7-58-129.7-129.4zm66 0c0 35.1 28.6 63.7 63.7 63.7s63.7-28.6 63.7-63.7c0-35.4-28.6-64-63.7-64s-63.7 28.6-63.7 64z"/>
</symbol>
<symbol id="phone" viewBox="0 0 244.6 324.4">
    <path d="M120.8 80c-1 12.8-9.9 19.9-22.7 20.2-8 .2-16 .2-23.9 0-2.2 0-3 .2-3.7 2.5a214.1 214.1 0 0 0-9.4 59.7 191.8 191.8 0 0 0 9.6 59c1.3 4.2 4.4 2.8 6.9 2.9 8 .1 16-.5 23.8 0 12.9.8 20.6 12.3 20.3 28.2-.4 16.5-.4 33-.1 49.5.2 12.3-10.4 21.7-23.8 22.3-38.2 1.7-60-20-75.2-51.4A237.6 237.6 0 0 1 .4 177.4c-1-27.1-.3-54.1 4.5-80.7 6-33.9 18.4-64.7 48.5-84.9A70.6 70.6 0 0 1 100.7.4c13.4 1.3 21.2 11.5 21 26.6zM85 232.3v.2H69a4.6 4.6 0 0 1-4.8-3.6A223.8 223.8 0 0 1 53 170.1a225 225 0 0 1 11-74.7c.7-2.6 2-3.4 4.6-3.4l30.1-.1c8.4-.2 14.8-6.6 14.7-14.4l.1-49c.2-11.8-4.8-19.4-13.9-20A65.6 65.6 0 0 0 48 26.9c-24.8 23.3-33.5 53.4-37.2 85.6a388.1 388.1 0 0 0-1.2 78 208.9 208.9 0 0 0 27.2 91c14 23.8 34 36.4 62.3 34.2 8.1-.6 13.8-6.3 13.8-14.5q0-23.7.4-47.4c.2-13.4-3.4-20.3-12-21.3-5.4-.7-11-.2-16.4-.2zm113-78h39.4c4 0 7.2 1.2 7.2 5.6s-3.3 5.5-7.3 5.5h-79.5a27.3 27.3 0 0 0-3.7.5l2.5 3c11.6 11.6 23.2 23.3 35 34.9 2.5 2.4 3 3.8.1 6.4-2.4 2.2-3.6 3.2-6.5.3a3305.9 3305.9 0 0 0-47-47c-2.7-2.8-2.8-4.5 0-7.2q23.9-23.5 47.4-47.4c2.7-2.8 4-1.9 6 .4 2 2 3.6 3.2.6 6.1-12.2 11.8-24 24-36 36a25.3 25.3 0 0 0-2 2.6 24.6 24.6 0 0 0 3.2.4h40.5z"/>
</symbol>
<symbol id="vk" viewBox="0 0 576 512">
    <path d="M545 117.7c3.7-12.5 0-21.7-17.8-21.7h-58.9c-15 0-21.9 7.9-25.6 16.7 0 0-30 73.1-72.4 120.5-13.7 13.7-20 18.1-27.5 18.1-3.7 0-9.4-4.4-9.4-16.9V117.7c0-15-4.2-21.7-16.6-21.7h-92.6c-9.4 0-15 7-15 13.5 0 14.2 21.2 17.5 23.4 57.5v86.8c0 19-3.4 22.5-10.9 22.5-20 0-68.6-73.4-97.4-157.4-5.8-16.3-11.5-22.9-26.6-22.9H38.8c-16.8 0-20.2 7.9-20.2 16.7 0 15.6 20 93.1 93.1 195.5C160.4 378.1 229 416 291.4 416c37.5 0 42.1-8.4 42.1-22.9 0-66.8-3.4-73.1 15.4-73.1 8.7 0 23.7 4.4 58.7 38.1 40 40 46.6 57.9 69 57.9h58.9c16.8 0 25.3-8.4 20.4-25-11.2-34.9-86.9-106.7-90.3-111.5-8.7-11.2-6.2-16.2 0-26.2.1-.1 72-101.3 79.4-135.6z"/>
</symbol>
<symbol id="youtube" viewBox="0 0 576 512">
    <path d="M549.655 124.083c-6.281-23.65-24.787-42.276-48.284-48.597C458.781 64 288 64 288 64S117.22 64 74.629 75.486c-23.497 6.322-42.003 24.947-48.284 48.597-11.412 42.867-11.412 132.305-11.412 132.305s0 89.438 11.412 132.305c6.281 23.65 24.787 41.5 48.284 47.821C117.22 448 288 448 288 448s170.78 0 213.371-11.486c23.497-6.321 42.003-24.171 48.284-47.821 11.412-42.867 11.412-132.305 11.412-132.305s0-89.438-11.412-132.305zm-317.51 213.508V175.185l142.739 81.205-142.739 81.201z"/>
</symbol>
</svg>